<svg xmlns="http://www.w3.org/2000/svg" width="83" height="75.783" viewBox="0 0 83 75.783">
  <path id="ic_add_a_photo_48px" d="M10.826,12.826V2h7.217V12.826H28.87v7.217H18.043V30.87H10.826V20.043H0V12.826ZM21.652,34.478V23.652H32.478V12.826H57.739l6.6,7.217h11.44A7.239,7.239,0,0,1,83,27.261v43.3a7.239,7.239,0,0,1-7.217,7.217H18.043a7.239,7.239,0,0,1-7.217-7.217V34.478ZM46.913,66.957A18.043,18.043,0,1,0,28.87,48.913,18.05,18.05,0,0,0,46.913,66.957ZM35.365,48.913A11.548,11.548,0,1,0,46.913,37.365,11.535,11.535,0,0,0,35.365,48.913Z" transform="translate(0 -2)" fill="#707070" opacity="0.3"/>
</svg>
